<svg xmlns="http://www.w3.org/2000/svg" width="31.172" height="29.77" viewBox="0 0 31.172 29.77">
  <g id="Group_557" data-name="Group 557" transform="translate(-201 -738.108)">
    <path id="Path_2617" data-name="Path 2617" d="M74.1,721.549v12.764c5.885-.726,11.573-1.717,13.492-6.348-8.4-.729-12.367-3.044-13.492-6.416Z" transform="translate(144.578 21.746)" fill="#a71c20" fill-rule="evenodd"/>
    <path id="Path_2618" data-name="Path 2618" d="M53.4,714.943a18.976,18.976,0,0,1,6.548-.862,17.634,17.634,0,0,1,6.084,1.322l.132.069v14.815l-.264-.069a10.642,10.642,0,0,0-5.622-1.454,23.849,23.849,0,0,0-6.812.994l-.2.064V715.006Z" transform="translate(150.998 24.056)" fill="#a71c20" fill-rule="evenodd"/>
    <rect id="Rectangle_68" data-name="Rectangle 68" width="1.951" height="28.61" rx="0.975" transform="translate(201 739.268)" fill="#a71c20"/>
  </g>
</svg>
