<svg xmlns="http://www.w3.org/2000/svg" width="40.622" height="25.766" viewBox="0 0 40.622 25.766">
  <g id="hotel-reception-bell" transform="translate(-7 -114.594)">
    <path id="Path_2611" data-name="Path 2611" d="M73.035,134.9c0-7.549-6.813-13.766-15.608-14.673a3.257,3.257,0,1,0-4.429,0c-8.795.907-15.607,7.124-15.607,14.673C37.391,134.9,73.035,134.9,73.035,134.9ZM50.014,124.768a11.6,11.6,0,0,0-5.976,4.213,1,1,0,1,1-1.638-1.153,13.6,13.6,0,0,1,7-4.966,1,1,0,1,1,.61,1.907Z" transform="translate(-27.902)" fill="#a71c20"/>
    <path id="Path_2612" data-name="Path 2612" d="M45.619,380.265H9a2,2,0,1,0,0,4.007H45.619a2,2,0,0,0,0-4.007Z" transform="translate(0 -243.911)" fill="#a71c20"/>
  </g>
</svg>
