<svg xmlns="http://www.w3.org/2000/svg" width="19.606" height="19.606" viewBox="0 0 19.606 19.606">
  <path id="iconmonstr-instagram-11" d="M9.8,1.767c2.617,0,2.928.01,3.962.057,2.657.121,3.9,1.381,4.018,4.018.047,1.033.056,1.344.056,3.961s-.01,2.928-.056,3.961c-.122,2.635-1.359,3.9-4.018,4.018-1.034.047-1.343.057-3.962.057s-2.928-.01-3.961-.057c-2.663-.122-3.9-1.388-4.018-4.019-.047-1.033-.057-1.343-.057-3.961s.011-2.927.057-3.961c.122-2.636,1.359-3.9,4.018-4.018,1.034-.047,1.344-.056,3.961-.056ZM9.8,0c-2.662,0-3,.011-4.041.059C2.2.222.223,2.2.06,5.761.011,6.807,0,7.141,0,9.8s.011,3,.059,4.042c.163,3.56,2.139,5.539,5.7,5.7,1.046.047,1.38.059,4.042.059s3-.011,4.042-.059c3.557-.163,5.54-2.139,5.7-5.7.048-1.046.06-1.38.06-4.042s-.011-3-.059-4.041c-.16-3.557-2.138-5.539-5.7-5.7C12.8.011,12.465,0,9.8,0Zm0,4.769A5.034,5.034,0,1,0,14.837,9.8,5.034,5.034,0,0,0,9.8,4.769Zm0,8.3A3.268,3.268,0,1,1,13.071,9.8,3.267,3.267,0,0,1,9.8,13.071Zm5.233-9.676a1.176,1.176,0,1,0,1.176,1.176A1.177,1.177,0,0,0,15.036,3.394Z" fill="#313131"/>
</svg>
