<svg xmlns="http://www.w3.org/2000/svg" width="14.649" height="21.582" viewBox="0 0 14.649 21.582">
  <g id="location-pin" transform="translate(-78.957)">
    <g id="Group_687" data-name="Group 687" transform="translate(78.957)">
      <path id="Path_2622" data-name="Path 2622" d="M86.282,0a7.333,7.333,0,0,0-7.325,7.324c0,1.623.956,4.091,3.007,7.768,1.4,2.509,2.793,4.627,2.852,4.717l1.007,1.527a.549.549,0,0,0,.916,0l1.007-1.527c.058-.088,1.442-2.189,2.852-4.717,2.052-3.676,3.007-6.144,3.007-7.768A7.333,7.333,0,0,0,86.282,0Zm3.359,14.557c-1.391,2.493-2.753,4.56-2.81,4.647l-.549.832-.549-.832c-.058-.088-1.43-2.174-2.81-4.647-1.9-3.41-2.868-5.844-2.868-7.233a6.227,6.227,0,0,1,12.454,0C92.508,8.714,91.544,11.147,89.641,14.557Z" transform="translate(-78.957)" fill="#a71c20"/>
      <path id="Path_2623" data-name="Path 2623" d="M157.352,73.291a4.061,4.061,0,1,0,4.061,4.061A4.066,4.066,0,0,0,157.352,73.291Zm0,7.024a2.963,2.963,0,1,1,2.963-2.963A2.967,2.967,0,0,1,157.352,80.315Z" transform="translate(-150.028 -70.073)" fill="#a71c20"/>
    </g>
  </g>
</svg>
