<?xml version="1.0" encoding="UTF-8"?> <svg xmlns="http://www.w3.org/2000/svg" width="170.031" height="268.601" viewBox="0 0 170.031 268.601"><g id="Group_725" data-name="Group 725" transform="translate(-237.82 -38.158)"><path id="Path_1" data-name="Path 1" d="M237.82,38.158v268.6H407.852V38.158Z" transform="translate(0 0)" fill="#040505" fill-rule="evenodd"></path><path id="Path_2" data-name="Path 2" d="M237.82,38.158v268.6H407.852V38.158Z" transform="translate(0 0)" fill-rule="evenodd"></path><path id="Path_3" data-name="Path 3" d="M398.014,46.447H246.1V296.9H398.014V46.447Zm3.748-3.753v257.96H242.35V42.694Z" transform="translate(0.78 0.781)" fill="#ffbe00" fill-rule="evenodd"></path><path id="Path_4" data-name="Path 4" d="M294.454,213.107h-.819c.114-1.085.175-1.91.175-2.462a2.664,2.664,0,0,0-.644-1.89,2.256,2.256,0,0,0-1.741-.692,4.11,4.11,0,0,0-2.969,1.237,3.805,3.805,0,0,0-1.265,2.783,3.211,3.211,0,0,0,.347,1.495,9.306,9.306,0,0,0,1.551,1.869,17.839,17.839,0,0,1,2.87,3.362,4.8,4.8,0,0,1,.68,2.373,5.863,5.863,0,0,1-1.038,3.266,7.676,7.676,0,0,1-3.049,2.594,9.325,9.325,0,0,1-4.26,1.018,5.994,5.994,0,0,1-3.727-1.155,3.191,3.191,0,0,1-1.517-2.439,1.67,1.67,0,0,1,.4-1.141,1.165,1.165,0,0,1,.906-.455,1.071,1.071,0,0,1,.87.422,3.133,3.133,0,0,1,.433,1.121,4.243,4.243,0,0,0,.609,1.536,2.569,2.569,0,0,0,.993.779,3.14,3.14,0,0,0,1.374.3,5.64,5.64,0,0,0,3.907-1.5,4.429,4.429,0,0,0,1.671-3.324,3.921,3.921,0,0,0-.206-1.238,5.851,5.851,0,0,0-.775-1.395,21.011,21.011,0,0,0-1.728-1.865,17.076,17.076,0,0,1-1.667-1.789,5.425,5.425,0,0,1-.716-1.407,4.373,4.373,0,0,1-.238-1.414,5.184,5.184,0,0,1,.949-2.849,7.051,7.051,0,0,1,2.461-2.275,6.91,6.91,0,0,1,3.443-.856,12.4,12.4,0,0,1,2.382.3c.536.1,1,.188,1.4.24a16.215,16.215,0,0,0-.544,1.9c-.121.588-.294,1.772-.516,3.544Z" transform="translate(7.101 29.101)" fill="#ffbe00" fill-rule="evenodd"></path><path id="Path_5" data-name="Path 5" d="M306.113,222.891l.416.586A13.784,13.784,0,0,1,303.58,226a3.456,3.456,0,0,1-1.7.642,1.067,1.067,0,0,1-.882-.431,2.175,2.175,0,0,1-.334-1.336,9.418,9.418,0,0,1,.254-1.812q.264-1.192,1.474-5.119a16.154,16.154,0,0,0,.524-2.258.457.457,0,0,0-.524-.509,3.285,3.285,0,0,0-1.655.649,9.969,9.969,0,0,0-2.442,2.311,7.311,7.311,0,0,0-1.049,2.66l-1.239,5.434H293.7c.5-1.815.882-3.3,1.149-4.447l2.281-9.994a12.464,12.464,0,0,1,1.642-4.253,7.523,7.523,0,0,1,2.672-2.375,6.752,6.752,0,0,1,3.252-.894,1.6,1.6,0,0,1,1.062.336,1.066,1.066,0,0,1,.389.845.972.972,0,0,1-.383.754,1.55,1.55,0,0,1-1.04.326,7.5,7.5,0,0,1-.963-.088,14.841,14.841,0,0,0-1.851-.205,1.4,1.4,0,0,0-1.169.579,8.16,8.16,0,0,0-.938,2.715l-1.744,7.682a20.434,20.434,0,0,1,4.042-3.29,4.218,4.218,0,0,1,2.055-.8,1.246,1.246,0,0,1,.95.36,1.37,1.37,0,0,1,.346,1,4.417,4.417,0,0,1-.129,1.061c-.132.611-.451,1.724-.948,3.33-.674,2.223-1.078,3.606-1.2,4.146a6.791,6.791,0,0,0-.182,1.448.581.581,0,0,0,.088.352.283.283,0,0,0,.252.118q.369,0,1.388-.892c.381-.325.85-.709,1.389-1.16Z" transform="translate(9.624 28.61)" fill="#ffbe00" fill-rule="evenodd"></path><path id="Path_6" data-name="Path 6" d="M314.6,214.059a6.978,6.978,0,0,0-1.415-.17,4.078,4.078,0,0,0-2.445.762,6.9,6.9,0,0,0-1.94,2.759,9.517,9.517,0,0,0-.9,3.967,2.547,2.547,0,0,0,.357,1.524,1.153,1.153,0,0,0,.937.455A3.492,3.492,0,0,0,311.5,222.2a6.767,6.767,0,0,0,1.806-3.319l1.293-4.826Zm1.938-2.415,1.035-.218-1.164,3.941q-.7,2.344-1.322,5.418a14.5,14.5,0,0,0-.35,2.146c0,.3.137.456.4.456a1.88,1.88,0,0,0,.794-.322,10.354,10.354,0,0,0,1.849-1.407l.493.615c-1.185,1.07-1.944,1.721-2.275,1.944a8.375,8.375,0,0,1-1.9,1.006,3.5,3.5,0,0,1-1.154.217.86.86,0,0,1-.611-.188.711.711,0,0,1-.209-.551,2.281,2.281,0,0,1,.134-.645l.62-2.105a13.276,13.276,0,0,1-3.19,2.744,4.023,4.023,0,0,1-2.091.719,1.628,1.628,0,0,1-1.38-.642,3.582,3.582,0,0,1-.653-2.233,9.3,9.3,0,0,1,.879-3.668,13.644,13.644,0,0,1,2.36-3.668,9.955,9.955,0,0,1,3.111-2.421,7.692,7.692,0,0,1,3.241-.59,8.489,8.489,0,0,1,1.01.06l.375-.608Z" transform="translate(11.667 29.843)" fill="#ffbe00" fill-rule="evenodd"></path><path id="Path_7" data-name="Path 7" d="M318,215.529l-.522-.561a16.172,16.172,0,0,1,3.2-2.539,4.552,4.552,0,0,1,2.044-.627.843.843,0,0,1,.516.141.4.4,0,0,1,.192.32,2.239,2.239,0,0,1-.083.5l-.707,3.131A19.308,19.308,0,0,1,326.6,212.6a4.234,4.234,0,0,1,2.088-.8,1.173,1.173,0,0,1,.944.393,1.639,1.639,0,0,1,.341,1.126,5.422,5.422,0,0,1-.134,1.09c-.171.672-.6,2.146-1.3,4.4a18.773,18.773,0,0,0-.982,4.221.884.884,0,0,0,.1.458.3.3,0,0,0,.264.152c.3,0,.771-.293,1.42-.873.448-.411.906-.8,1.364-1.15l.354.557a13.909,13.909,0,0,1-2.962,2.545,3.19,3.19,0,0,1-1.6.625,1.086,1.086,0,0,1-.913-.424,2.277,2.277,0,0,1-.331-1.376,33.986,33.986,0,0,1,1.729-6.9,16.884,16.884,0,0,0,.529-2.286c0-.321-.195-.481-.577-.481a3.234,3.234,0,0,0-1.6.649,9.707,9.707,0,0,0-2.441,2.281,7.263,7.263,0,0,0-1.054,2.687l-1.261,5.437h-2.315c.436-1.566.809-3.057,1.138-4.476l1.386-5.929a2.316,2.316,0,0,0,.077-.5c0-.274-.1-.411-.315-.411a1.5,1.5,0,0,0-.722.328A10,10,0,0,0,318,215.529Z" transform="translate(13.719 29.907)" fill="#ffbe00" fill-rule="evenodd"></path><path id="Path_8" data-name="Path 8" d="M339.525,214.052a7.31,7.31,0,0,0-1.323-.142,4.1,4.1,0,0,0-2.525.781,5.923,5.923,0,0,0-1.8,2.625,12.244,12.244,0,0,0-1.045,4.395,1.843,1.843,0,0,0,.417,1.231,1.165,1.165,0,0,0,.915.5,3.012,3.012,0,0,0,1.539-.6,5.155,5.155,0,0,0,1.5-1.51,11.817,11.817,0,0,0,1.184-3.122l1.142-4.158Zm-2.119,8.514a48.206,48.206,0,0,1-4.085,3.031,16.658,16.658,0,0,0-3.281,2.6,2.757,2.757,0,0,0-.6,1.707,2.1,2.1,0,0,0,.788,1.6,2.727,2.727,0,0,0,1.9.708,4.412,4.412,0,0,0,2.067-.519,5.243,5.243,0,0,0,1.741-1.5,5.852,5.852,0,0,0,1.026-2.229,16.811,16.811,0,0,0,.293-3.289c0-.3.06-1,.154-2.1Zm3.865-10.8,1.2-.3q-1.127,3.652-2.066,7.319-.673,2.629-.941,4.376a14.733,14.733,0,0,0-.152,2.219,11.854,11.854,0,0,1-.5,3.607,5.831,5.831,0,0,1-2.436,3.081,7.508,7.508,0,0,1-4.22,1.164,5.082,5.082,0,0,1-3.306-.985,2.915,2.915,0,0,1-1.211-2.265,3.49,3.49,0,0,1,.978-2.352,10.713,10.713,0,0,1,3-1.987c.764-.4,1.495-.821,2.171-1.248a4.4,4.4,0,0,1-1.8.6,1.294,1.294,0,0,1-1.025-.543,2.1,2.1,0,0,1-.45-1.423,10.971,10.971,0,0,1,1.7-5.7,11.945,11.945,0,0,1,4.108-4.252,7.251,7.251,0,0,1,3.707-.867c.288,0,.648.006,1.072.021l.165-.472Z" transform="translate(15.47 29.85)" fill="#ffbe00" fill-rule="evenodd"></path><path id="Path_9" data-name="Path 9" d="M286.215,233.237l.183-.7a25.594,25.594,0,0,0,3.848-.617c-.248.727-.532,1.69-.823,2.867l-1.179,4.4,1.436.059a4.739,4.739,0,0,0,2.169-.5,5.212,5.212,0,0,0,2.1-1.921,5.155,5.155,0,0,0,.932-2.96,3.071,3.071,0,0,0-1.128-2.495,5.441,5.441,0,0,0-3.445-.92,11.067,11.067,0,0,0-5.173,1.319,10.361,10.361,0,0,0-3.911,3.371,7.234,7.234,0,0,0-1.37,4.052,3.829,3.829,0,0,0,.356,1.706,4.279,4.279,0,0,0,1.279,1.425c.513.375.762.744.762,1.1A.76.76,0,0,1,282,244a.818.818,0,0,1-.6.234c-.612,0-1.2-.415-1.774-1.259a5.547,5.547,0,0,1-.864-3.2,9.307,9.307,0,0,1,2.709-6.461,12.378,12.378,0,0,1,9.525-3.83,9.977,9.977,0,0,1,3.728.593,4.772,4.772,0,0,1,2.176,1.624,3.781,3.781,0,0,1,.726,2.228,5.253,5.253,0,0,1-1.015,3,7.1,7.1,0,0,1-3,2.376,10.34,10.34,0,0,1-4.4.912c-.249,0-.638-.02-1.168-.062L286.791,245c-.2.818-.433,1.634-.678,2.434a9.1,9.1,0,0,0,2.107.291,7.783,7.783,0,0,0,2.436-.435l-.189.878a8.259,8.259,0,0,1-2.048.319,23.589,23.589,0,0,1-2.365-.165,16.669,16.669,0,0,0-2.02-.154,14.384,14.384,0,0,0-3.089.348l.186-.822a4.737,4.737,0,0,0,2.208-.761,5.407,5.407,0,0,0,1.368-2.816l2.344-9.333a4.976,4.976,0,0,0,.158-.93A.6.6,0,0,0,287,233.4a.662.662,0,0,0-.482-.2,1.852,1.852,0,0,0-.306.032Z" transform="translate(7.053 32.953)" fill="#ffbe00" fill-rule="evenodd"></path><path id="Path_10" data-name="Path 10" d="M302.795,236.469a7.438,7.438,0,0,0-1.423-.171,4.049,4.049,0,0,0-2.445.768,6.815,6.815,0,0,0-1.943,2.756,9.681,9.681,0,0,0-.893,3.965,2.538,2.538,0,0,0,.358,1.519,1.128,1.128,0,0,0,.934.462,3.49,3.49,0,0,0,2.307-1.155A6.791,6.791,0,0,0,301.5,241.3l1.294-4.829Zm1.933-2.417,1.037-.214-1.171,3.939q-.7,2.348-1.319,5.411a14.127,14.127,0,0,0-.346,2.156c0,.3.129.455.387.455a1.88,1.88,0,0,0,.79-.318,10.023,10.023,0,0,0,1.851-1.413l.5.615a27.669,27.669,0,0,1-2.274,1.944,8.3,8.3,0,0,1-1.9,1.006,3.347,3.347,0,0,1-1.157.218.842.842,0,0,1-.6-.189.709.709,0,0,1-.207-.551,2.529,2.529,0,0,1,.125-.645l.627-2.105a13.125,13.125,0,0,1-3.194,2.744,3.943,3.943,0,0,1-2.087.715,1.615,1.615,0,0,1-1.384-.639,3.577,3.577,0,0,1-.656-2.234,9.211,9.211,0,0,1,.884-3.664,13.564,13.564,0,0,1,2.355-3.67,10.277,10.277,0,0,1,3.117-2.428,7.78,7.78,0,0,1,3.239-.587,8.31,8.31,0,0,1,1.013.066l.375-.611Z" transform="translate(9.632 33.703)" fill="#ffbe00" fill-rule="evenodd"></path><path id="Path_11" data-name="Path 11" d="M312.175,244.854l.528.558a15.67,15.67,0,0,1-2.865,2.5,5.238,5.238,0,0,1-2.729,1.132,1.014,1.014,0,0,1-.791-.362,1.54,1.54,0,0,1-.307-1,27.511,27.511,0,0,1,.964-5.15l1.676-6.84a28.6,28.6,0,0,1,1.543-4.97,7.291,7.291,0,0,1,6.45-4.016,1.581,1.581,0,0,1,1.052.322,1,1,0,0,1,.38.782,1.059,1.059,0,0,1-.369.83,1.576,1.576,0,0,1-1.081.326,7.9,7.9,0,0,1-1.309-.161,7.41,7.41,0,0,0-1.369-.136,1.479,1.479,0,0,0-.954.264,3.347,3.347,0,0,0-.813,1.566q-.354,1.2-1.176,4.708l-1.567,6.527q-1.152,4.89-1.151,5.1c0,.335.123.5.354.5a2.136,2.136,0,0,0,1-.407,14.948,14.948,0,0,0,2.541-2.074Z" transform="translate(11.745 32.475)" fill="#ffbe00" fill-rule="evenodd"></path><path id="Path_12" data-name="Path 12" d="M321.27,236.469a7.512,7.512,0,0,0-1.423-.171,4.009,4.009,0,0,0-2.439.768,6.74,6.74,0,0,0-1.946,2.756,9.618,9.618,0,0,0-.9,3.965,2.508,2.508,0,0,0,.363,1.519,1.142,1.142,0,0,0,.937.462,3.517,3.517,0,0,0,2.308-1.155,6.805,6.805,0,0,0,1.8-3.315l1.3-4.829Zm1.933-2.417,1.035-.214-1.168,3.939c-.466,1.565-.9,3.371-1.321,5.411a14.156,14.156,0,0,0-.344,2.156c0,.3.13.455.389.455a1.917,1.917,0,0,0,.789-.318,9.993,9.993,0,0,0,1.853-1.413l.5.615c-1.185,1.07-1.941,1.723-2.271,1.944a8.475,8.475,0,0,1-1.907,1.006,3.322,3.322,0,0,1-1.152.218.885.885,0,0,1-.615-.189.739.739,0,0,1-.2-.551,2.666,2.666,0,0,1,.122-.645l.634-2.105a13.369,13.369,0,0,1-3.194,2.744,3.986,3.986,0,0,1-2.09.715,1.619,1.619,0,0,1-1.386-.639,3.555,3.555,0,0,1-.654-2.234,9.194,9.194,0,0,1,.879-3.664,13.489,13.489,0,0,1,2.36-3.67,10.2,10.2,0,0,1,3.115-2.428,7.815,7.815,0,0,1,3.241-.587,8.176,8.176,0,0,1,1.008.066l.377-.611Z" transform="translate(12.815 33.703)" fill="#ffbe00" fill-rule="evenodd"></path><path id="Path_13" data-name="Path 13" d="M332.781,243.939l.353.91q-3.722,2.9-6.282,2.9a2.177,2.177,0,0,1-1.974-.961,4.474,4.474,0,0,1-.615-2.442,11.147,11.147,0,0,1,1.309-5.062,10.919,10.919,0,0,1,3.183-3.977,5.435,5.435,0,0,1,3.3-1.07,2.918,2.918,0,0,1,1.747.437,1.273,1.273,0,0,1,.591,1.055,1.067,1.067,0,0,1-.308.785,1.241,1.241,0,0,1-.879.3,3.012,3.012,0,0,1-1.409-.5,3.079,3.079,0,0,0-1.478-.525,2.266,2.266,0,0,0-1.525.689,6.736,6.736,0,0,0-1.448,2.676,12.053,12.053,0,0,0-.685,3.99,3.849,3.849,0,0,0,.576,2.282,1.355,1.355,0,0,0,1.187.62c1.214,0,2.673-.7,4.355-2.11Z" transform="translate(14.888 33.772)" fill="#ffbe00" fill-rule="evenodd"></path><path id="Path_14" data-name="Path 14" d="M336.467,241.183a12.144,12.144,0,0,0,3.766-2.41,2.628,2.628,0,0,0,.863-1.788,1.56,1.56,0,0,0-.353-1.062,1.181,1.181,0,0,0-.906-.4,1.721,1.721,0,0,0-1.122.44,4.247,4.247,0,0,0-1.237,1.742,15.663,15.663,0,0,0-1.012,3.477Zm5.439,2.257.532.675c-2.548,2.424-4.724,3.635-6.545,3.635a2.007,2.007,0,0,1-1.687-.746,3.886,3.886,0,0,1-.586-2.4,12.532,12.532,0,0,1,2.022-6.621q2.27-3.756,5.434-3.75a2.369,2.369,0,0,1,1.688.549,1.983,1.983,0,0,1,.586,1.519,3.408,3.408,0,0,1-.7,1.99,8.205,8.205,0,0,1-2.505,2.03q-.909.519-3.861,1.853a9.392,9.392,0,0,0-.143,1.612,2.583,2.583,0,0,0,.353,1.553,1.208,1.208,0,0,0,1.019.441,3.284,3.284,0,0,0,1.395-.361,18.992,18.992,0,0,0,3-1.985Z" transform="translate(16.5 33.772)" fill="#ffbe00" fill-rule="evenodd"></path><path id="Path_15" data-name="Path 15" d="M294.584,163.736c-.613.93-.5,3.516-1.313,3.914a1.773,1.773,0,0,1-1.892-.844c-.538-.721-.682-2.492-.479-4.245a39.739,39.739,0,0,1,3.133-10.924,37.516,37.516,0,0,1,6.974-9.288c1.807-1.59,5.438-4.052,5.438-4.052a36.718,36.718,0,0,0-4.625,5.535c-1.025,1.472-2.316,3.882-3.643,6.3a49.482,49.482,0,0,0-2.152,4.547,15.828,15.828,0,0,0-.97,3.328,30.363,30.363,0,0,0-.36,3.758,15.578,15.578,0,0,0,1.028-1.553c.376-.716,1.009-1.982,1.361-2.578s1.293-2.073,1.776-2.729c0,0-.816,1.709-1.108,2.31-.293.58-.958,2.146-1.3,2.929a24.525,24.525,0,0,1-1.871,3.587Z" transform="translate(9.127 17.247)" fill="#ffbe00" fill-rule="evenodd"></path><path id="Path_16" data-name="Path 16" d="M321.339,157.153c-1.254,1.114-3.663,3.055-4.478,3.688a44.8,44.8,0,0,1-3.767,2.723,15.7,15.7,0,0,0-.406-3.567,30.632,30.632,0,0,0,2.56-2.223,12.31,12.31,0,0,1,2.742-2.193,20.117,20.117,0,0,1,3.583-1.169c1.143-.338,2.462-.675,2.462-.675a19.859,19.859,0,0,1-2.7,3.416Zm19.369-16.973a39.208,39.208,0,0,0-10.073-.559,71,71,0,0,0-9.166,1.078,37.918,37.918,0,0,0-7.649,2.645c-2.981,1.338-7.8,3.952-9.864,5.125a19.509,19.509,0,0,0-4.742,4.262,20.494,20.494,0,0,1,5.4-2.6,61.2,61.2,0,0,0,6.939-2.275,41.323,41.323,0,0,1,8.969-3.024,71.291,71.291,0,0,1,9.061-.74c.075.127-2.571,1.994-3.831,3.154-.954.892-4.063,3.885-5.249,4.445a47.352,47.352,0,0,0-5.441,2.231,20.421,20.421,0,0,0-3.014,2.531s-.612-1.08-1.227-2.191a1.607,1.607,0,0,0-2.559-.38,24.618,24.618,0,0,0-2.462,5.25,40.951,40.951,0,0,0-1.757,7.71c-.076,1.727-.006,3.222,1.178,3.758a11.464,11.464,0,0,0,4.882.457c.957-.187,1.76-1.582,2.211-2.6.468-1.062,2.313-.986,2.306-.23-.02.88-3.047,4.483-4.548,6.046a44.911,44.911,0,0,1-5.3,4.655A40.667,40.667,0,0,0,311.4,176.2c1.5-.692,5.484-2.963,6.31-3.53.813-.551,4.962-3.375,5.919-4.832,1.119-1.706,1.108-2.914-.348-3.565a9.776,9.776,0,0,0-4.414-.422c-1.184.141-2.6.231-2.443-.047s3.878-2.891,5.641-4.039,4.9-2.97,5.811-4.351-1-2.838-1-2.838a21,21,0,0,1,2.3-.92c1.5-.482,4.96-1.17,7.764-1.955s6.622-2.466,7.617-4.5-.781-4.242-3.848-5.02Z" transform="translate(10.574 17.46)" fill="#ffbe00" fill-rule="evenodd"></path><path id="Path_17" data-name="Path 17" d="M308.318,176.791c1.47-.486,3.776-1.688,5.56-2.207s4.352-1.117,5.892-1.451a25.23,25.23,0,0,1,4.947-.651c.115.07-.673,2.444-1.034,4.057a44.265,44.265,0,0,1-1.436,5.147c-.413,1.029-1.009,2.863-1.687,3.093a57.361,57.361,0,0,0-6.125.918c-2.479.654-6.22,1.686-7.257,1.869a4.7,4.7,0,0,1-3.462-.23s.156-3.139.156-4.805a18.45,18.45,0,0,0-.847-4.914,15.8,15.8,0,0,0-1.569-3.04c-.457-.812-1.248-1.991-1.859-1.991s-.947,1.765-1.116,2.653-.763,4.413-.822,5.72-.652,4.35-.851,5.887-.19,4.188-.284,5.593-.077,4.451,0,5.594.714,2.844,1.271,2.463,1.382-1.026,1.668-1.219c.335-.22,1.339-.944,1.763-.586s.785.387,1.043-.162a9.645,9.645,0,0,0,.853-1.893c.134-.689.166-3.6.166-4.261a7.388,7.388,0,0,0,4.152,1.279,35.761,35.761,0,0,0,6.242-1.443,42.284,42.284,0,0,1,4.852-1.354,16.94,16.94,0,0,1,5.777.8c1.437.424,2.665,1.207,3.683,1.013s1.9-1.553,2.395-2.556c.511-1.044,2.342-5.688,2.995-7.822a35.03,35.03,0,0,0,1.348-6.772c.076-1.566.192-4.453-1.478-5.885-1.177-1.014-3.561-1.633-6.015-1.5a51.663,51.663,0,0,0-6.755,1.015,40.646,40.646,0,0,0-6.277,1.864c-1.784.762-4.518,2.326-5.3,2.779-.757.44-2.733,1.642-3.511,2.207-.727.537-1.483,1.264-1.356,1.429.188.246,2.793-.147,4.276-.64Z" transform="translate(10.099 22.384)" fill="#ffbe00" fill-rule="evenodd"></path><path id="Path_18" data-name="Path 18" d="M308.922,133.14a14.448,14.448,0,0,1,3.381-.685,13.745,13.745,0,0,0,4.225-.728,4.544,4.544,0,0,1,3.766.065c1.365.543,1.927,1.17,1.334,1.581a23.849,23.849,0,0,1-2.41.955s1.429.682,1.73,1.326a1.835,1.835,0,0,1-.778,2.28,10.573,10.573,0,0,1-4.966,1.231,16.444,16.444,0,0,1-5.811-.92c-1.413-.5-2.3-1.32-2.393-2.5a2.624,2.624,0,0,1,1.921-2.6Z" transform="translate(11.914 16.051)" fill="#ffbe00" fill-rule="evenodd"></path><path id="Path_19" data-name="Path 19" d="M322.823,99.18a11.966,11.966,0,0,1,3.451-.953,9.126,9.126,0,0,1,2.518-.022c-.032.748-1.028,1.765-1.737,2.478a47.308,47.308,0,0,1-3.7,3.084c-.872.645-2.811,1.993-2.811,1.993.087-.573,0-2.421,0-2.884s-.117-2.076-.117-2.076a12.69,12.69,0,0,1,2.393-1.62ZM307.859,122.2c2.191.5,5.107.3,6.637-1a11.881,11.881,0,0,0,3.618-5.453c.9-2.307,1.6-5.283,1.879-5.643.327-.42,2.839-.976,4.636-1.627a22.442,22.442,0,0,0,6.413-3.8c1.194-1.1,2.871-2.626,2.907-4.682.023-1.464-1.3-3.012-2.871-3.777a13.126,13.126,0,0,0-6.584-.837,17.5,17.5,0,0,0-4.71,1.229,9.063,9.063,0,0,0-.45-2.274c.73-.872,2.412-2.952,3.755-4.769s2.1-3.663,1.944-4.819-1.717-2.959-3.01-3.769c-1.22-.764-2.812-.436-5.371.539a41.778,41.778,0,0,0-5.426,2.682,27.1,27.1,0,0,0-3.154-2.216s3.344-3.771,4.34-5.276a31.686,31.686,0,0,0,3.3-7.474c.944-3.09.877-8.126.341-9.066s-1.623-.366-2.615-.063a12.881,12.881,0,0,0-3.137.965c-.662.377-2.142,2.541-2.838,3.538s-2.575,3.782-3.342,4.893-2.935,3.874-3.574,4.844a38.45,38.45,0,0,0-3.1,5.351c-.451,1.272-.679,2.182.287,2.956a18.286,18.286,0,0,0,2.922,1.661,17.686,17.686,0,0,0,3.129,1.081,7.06,7.06,0,0,0,1.787-.047c.293.031,2.173,1.164,2.2,1.64.047.481-2.008,2.133-3.141,3.2S301,93.47,299.769,94.381a27.507,27.507,0,0,1-4.237,2.679c-.764.265-1.567.067-1.639.6a3.677,3.677,0,0,0,.668,2.136,3.336,3.336,0,0,0,2.27,1.278,11.409,11.409,0,0,0,4.391-1.377,67.277,67.277,0,0,0,6.236-4.038,53.828,53.828,0,0,0,3.98-3.686,11.67,11.67,0,0,1,.856,2.507s-1.819,2.7-2.567,3.711c-.716.975-2.274,3.076-2.854,3.845a6.7,6.7,0,0,0-1.383,2.708,5.865,5.865,0,0,0,.7,3.548,3.513,3.513,0,0,0,2.671,1.67c.9.035,1.274-.66,1.562-1.336a16.6,16.6,0,0,1,1.941-2.973,9.266,9.266,0,0,1,1.355-1.158,8.1,8.1,0,0,1,.242,1.733,30.633,30.633,0,0,1-.557,6.139c-.381,1.481-.829,2.768-1.874,3.18a5.05,5.05,0,0,1-4.073-.571c-1.274-.783-3.129-3.113-4.676-4.705-1.4-1.449-4.5-4.582-5.5-5.354-.849-.648-3.655-2.682-3.655-2.682a11.427,11.427,0,0,1,1.607,2.041,31.473,31.473,0,0,1,2.048,4.546,51.079,51.079,0,0,0,3.9,8.464,11.479,11.479,0,0,0,6.678,4.918Z" transform="translate(9.611 3.703)" fill="#ffbe00" fill-rule="evenodd"></path><path id="Path_20" data-name="Path 20" d="M341.678,115.691a24.6,24.6,0,0,0-7.949-4.487c-3.1-1-9.144-2.088-9.144-2.088a68.586,68.586,0,0,1,7.569,4.735c.041.26-3.569,1.334-5.433,2-1.811.652-5.108,1.976-7.759,3.055a114.539,114.539,0,0,0-10.655,5.117c-4.282,2.319-7.519,4.548-7.519,4.548.821,0,4.1.5,5.879.573a47.349,47.349,0,0,0,8.574-.316c2.631-.6,7.389-3.287,10.036-4.3s11.165-3.4,12.811-3.468,4.7-.646,5.229-1.519c.543-.9-.311-2.592-1.639-3.85Z" transform="translate(10.845 12.221)" fill="#ffbe00" fill-rule="evenodd"></path><path id="Path_21" data-name="Path 21" d="M293.981,119.84a8.7,8.7,0,0,1-2.952,1.892,4.765,4.765,0,0,1,.328-2.536,25.228,25.228,0,0,1,2.322-3.431,29.384,29.384,0,0,0-3.336,3.893,16.747,16.747,0,0,1-1.7,2.316c-.351.277-2.169.094-2.85,1.056-1.1,1.553,0,4.2.81,5.272a6.817,6.817,0,0,0,4.855,2.72c2.531.095,4.6-1.876,5.463-2.955a8.1,8.1,0,0,0,1.548-4.626,23.468,23.468,0,0,1,.692-4.99,45.929,45.929,0,0,1,2.4-5.559,37.824,37.824,0,0,0-3.337,2.779c-1.154,1.074-2.591,2.715-4.238,4.168Z" transform="translate(8.183 12.872)" fill="#ffbe00" fill-rule="evenodd"></path></g></svg> 