<?xml version="1.0" encoding="utf-8"?>
<!-- Generator: Adobe Illustrator 22.0.0, SVG Export Plug-In . SVG Version: 6.00 Build 0)  -->
<svg version="1.1" id="tripadvisor-logotype" xmlns="http://www.w3.org/2000/svg" xmlns:xlink="http://www.w3.org/1999/xlink"
	 x="0px" y="0px" viewBox="0 0 25.9 15.3" style="enable-background:new 0 0 25.9 15.3;" xml:space="preserve">
<style type="text/css">
	.st0{fill:#FFFFFF;}
</style>
<g id="Group_114" transform="translate(0 0)">
	<path id="Path_2519" class="st0" d="M15.8,0.2c0.7,0.1,1.4,0.3,2.1,0.5c1.2,0.4,2.4,0.9,3.5,1.6c0.1,0,0.2,0.1,0.3,0.1
		c1.3,0,2.5,0,3.8,0c0.1,0,0.2,0,0.3,0c0,0,0,0,0,0c-0.1,0.1-0.1,0.2-0.2,0.3c-0.4,0.7-0.8,1.4-1,2.1c0,0.1,0,0.2,0,0.2
		c2.1,2.9,1.4,7-1.5,9c-1.1,0.8-2.4,1.2-3.8,1.2c-0.5,0-1-0.1-1.5-0.2c-1.2-0.3-2.3-1-3.2-1.9c-0.1-0.1-0.2-0.3-0.3-0.4l-1.4,2.1
		l-1.4-2c0,0,0,0,0,0c0,0,0,0,0,0c-1,1.2-2.4,2-4,2.3c-0.9,0.1-1.8,0.1-2.7-0.2c-2.5-0.7-4.3-2.7-4.7-5.3C-0.1,9,0,8.1,0.2,7.2
		c0.2-0.8,0.5-1.5,1-2.2c0-0.1,0-0.1,0-0.2C1,4.2,0.7,3.5,0.3,2.9C0.2,2.8,0.1,2.6,0,2.5V2.4c0,0,0,0,0.1,0c1.3,0,2.6,0,3.9,0
		c0.1,0,0.1,0,0.2-0.1C5.1,1.8,6,1.3,7.1,1c0.7-0.3,1.5-0.5,2.3-0.6c0.7-0.1,1.5-0.2,2.2-0.3C13,0,14.4,0,15.8,0.2z M14.2,8.8
		c0,2.9,2.3,5.2,5.1,5.2s5.2-2.3,5.2-5.1c0-2.9-2.3-5.2-5.1-5.2c0,0-0.1,0-0.1,0C16.5,3.8,14.2,6,14.2,8.8z M6.5,3.7
		C3.6,3.7,1.3,6,1.3,8.8S3.7,14,6.5,14c2.8,0,5.1-2.3,5.1-5.1C11.6,6,9.3,3.7,6.5,3.7C6.5,3.7,6.5,3.7,6.5,3.7L6.5,3.7z M6.7,2.3
		c3.1,0.2,5.7,2.5,6.2,5.6c0.4-3.1,3-5.4,6.1-5.6c-1.8-0.8-3.8-1.2-5.8-1.2C11,1.1,8.8,1.5,6.7,2.3z"/>
	<path id="Path_2520" class="st0" d="M19.4,5.6c1.8,0,3.2,1.4,3.2,3.2c0,1.8-1.4,3.2-3.2,3.2c-1.8,0-3.2-1.4-3.2-3.2c0,0,0,0,0,0
		C16.2,7,17.6,5.6,19.4,5.6C19.4,5.6,19.4,5.6,19.4,5.6z M21.5,8.8c0-1.2-1-2.1-2.1-2c-1.1,0-2,0.9-2,2c0,1.2,0.9,2.1,2,2.1
		C20.5,10.9,21.4,10,21.5,8.8C21.5,8.8,21.5,8.8,21.5,8.8z"/>
	<path id="Path_2521" class="st0" d="M6.4,5.6c1.8,0,3.2,1.4,3.2,3.2S8.2,12,6.4,12c-1.8,0-3.2-1.4-3.2-3.2C3.2,7,4.6,5.6,6.4,5.6
		C6.4,5.6,6.4,5.6,6.4,5.6z M8.5,8.8c0-1.2-1-2.1-2.2-2c-1.1,0-2,0.9-2,2c0,1.2,0.9,2.1,2,2.2c1.2,0,2.1-0.9,2.2-2
		C8.5,8.8,8.5,8.8,8.5,8.8z"/>
	<path id="Path_2522" class="st0" d="M19.4,7.7c0.6,0,1.1,0.5,1.1,1.1c0,0.6-0.5,1.1-1.1,1.1c-0.6,0-1.1-0.5-1.1-1
		C18.3,8.2,18.8,7.7,19.4,7.7C19.4,7.7,19.4,7.7,19.4,7.7z"/>
	<path id="Path_2523" class="st0" d="M6.4,7.7c0.6,0,1.1,0.5,1.1,1.1S7,9.8,6.4,9.8S5.3,9.4,5.3,8.8S5.8,7.7,6.4,7.7L6.4,7.7z"/>
</g>
</svg>
