<svg xmlns="http://www.w3.org/2000/svg" width="26.589" height="68.804" viewBox="0 0 26.589 68.804">
  <g id="Group_28" data-name="Group 28" transform="translate(0)">
    <g id="Group_4" data-name="Group 4">
      <path id="Path_15" data-name="Path 15" d="M61.3,73.022c-.267.444-.178,1.511-.533,1.689-.178.089-.533,0-.8-.356a2.958,2.958,0,0,1-.178-1.867,16.852,16.852,0,0,1,1.333-4.711,16.006,16.006,0,0,1,3.022-4C64.949,63.067,66.46,62,66.46,62A14.523,14.523,0,0,0,64.5,64.4c-.444.622-.978,1.689-1.6,2.756a9.528,9.528,0,0,0-.889,1.956,6.286,6.286,0,0,0-.444,1.422,9.8,9.8,0,0,0-.178,1.6,5.449,5.449,0,0,0,.444-.711c.178-.267.444-.889.622-1.156a9.016,9.016,0,0,1,.8-1.156s-.356.711-.444.978-.444.889-.533,1.244c-.356.622-.711,1.244-.978,1.689Z" transform="translate(-57.029 -22.29)" fill="#a71c20" fill-rule="evenodd"/>
      <path id="Path_16" data-name="Path 16" d="M74,70.354c-.533.444-1.6,1.333-1.956,1.6a14.056,14.056,0,0,1-1.6,1.156,6.282,6.282,0,0,0-.178-1.511,4.763,4.763,0,0,0,1.067-.978,13.3,13.3,0,0,1,1.156-.978A10.225,10.225,0,0,1,74,69.11a7.99,7.99,0,0,1,1.067-.267A5.925,5.925,0,0,1,74,70.354Zm8.356-7.289A19.035,19.035,0,0,0,78,62.8c-.889.089-2.667.178-4,.444A12.214,12.214,0,0,0,70.711,64.4a46.885,46.885,0,0,0-4.267,2.222A8.845,8.845,0,0,0,64.4,68.488a9.168,9.168,0,0,1,2.311-1.156,28.381,28.381,0,0,0,3.022-.978,20.114,20.114,0,0,1,3.911-1.333c1.244-.178,3.911-.356,3.911-.356A13.632,13.632,0,0,1,75.867,66c-.444.356-1.778,1.689-2.222,1.956a14.68,14.68,0,0,0-2.311.978A7.93,7.93,0,0,0,70,70s-.267-.444-.533-.978a.689.689,0,0,0-1.067-.178,10.411,10.411,0,0,0-1.067,2.222,25.177,25.177,0,0,0-.8,3.289c0,.711,0,1.422.533,1.6a4.461,4.461,0,0,0,2.133.178c.444-.089.8-.711.978-1.156s.978-.444.978-.089A10.3,10.3,0,0,1,69.2,77.465a18.694,18.694,0,0,1-2.311,2.044,15.4,15.4,0,0,0,2.844-1.156,25.622,25.622,0,0,0,2.756-1.511A16.127,16.127,0,0,0,75.067,74.8c.444-.711.444-1.244-.178-1.511a3.449,3.449,0,0,0-1.867-.178c-.533.089-1.156.089-1.067,0s1.689-1.244,2.4-1.778a9.565,9.565,0,0,0,2.489-1.867c.356-.622-.444-1.244-.444-1.244a4.744,4.744,0,0,1,.978-.356c.622-.178,2.133-.533,3.378-.8C82,66.71,83.6,66,84.044,65.11c.356-.8-.356-1.778-1.689-2.044Z" transform="translate(-57.547 -22.378)" fill="#a71c20" fill-rule="evenodd"/>
      <path id="Path_17" data-name="Path 17" d="M67.973,82.733c.622-.178,1.6-.711,2.4-.978.8-.178,1.867-.444,2.578-.622a7.836,7.836,0,0,1,2.133-.267,11.763,11.763,0,0,1-.444,1.778c-.178.622-.444,1.689-.622,2.222-.178.444-.444,1.244-.711,1.333-.178.089-1.6.089-2.667.356s-2.667.711-3.111.8a2.244,2.244,0,0,1-1.511-.089s.089-1.333.089-2.044a7.64,7.64,0,0,0-.356-2.133,4.711,4.711,0,0,0-.711-1.333c-.178-.356-.533-.889-.8-.889s-.444.8-.444,1.156a16.691,16.691,0,0,0-.356,2.489c0,.533-.267,1.867-.356,2.578a21.661,21.661,0,0,0-.089,2.4,21.551,21.551,0,0,0,0,2.4c0,.533.267,1.244.533,1.067a7.215,7.215,0,0,0,.711-.533c.178-.089.533-.444.8-.267.178.178.356.178.444-.089s.267-.533.356-.8a12.518,12.518,0,0,0,.089-1.867,3.076,3.076,0,0,0,1.778.533,16.94,16.94,0,0,0,2.667-.622c.711-.178,1.511-.444,2.133-.622A7.669,7.669,0,0,1,75,89.044c.622.178,1.156.533,1.6.444s.8-.711,1.067-1.067c.178-.444.978-2.489,1.333-3.378a21.839,21.839,0,0,0,.622-2.933c0-.711.089-1.956-.622-2.578A8.532,8.532,0,0,0,76.151,79a14.514,14.514,0,0,0-2.933.444,15.2,15.2,0,0,0-2.667.8c-.8.356-1.956.978-2.311,1.156a14.476,14.476,0,0,0-1.511.978c-.356.267-.622.533-.622.622.178.178,1.244,0,1.867-.267Z" transform="translate(-57.386 -24.179)" fill="#a71c20" fill-rule="evenodd"/>
      <path id="Path_18" data-name="Path 18" d="M69.678,58.9a4.026,4.026,0,0,1,1.422-.267,5.265,5.265,0,0,0,1.867-.356,2,2,0,0,1,1.6,0c.622.267.8.533.533.711s-.8.267-1.067.444c0,0,.622.267.711.533a.776.776,0,0,1-.356.978,4.7,4.7,0,0,1-2.133.533,9.266,9.266,0,0,1-2.489-.356A1.321,1.321,0,0,1,68.7,60.057a1.336,1.336,0,0,1,.978-1.156Z" transform="translate(-58.025 -21.858)" fill="#a71c20" fill-rule="evenodd"/>
      <path id="Path_19" data-name="Path 19" d="M73.9,34.37a5.12,5.12,0,0,1,1.511-.444,3.475,3.475,0,0,1,1.067,0c0,.356-.444.8-.711,1.067a11.573,11.573,0,0,1-1.6,1.333c-.356.267-1.244.889-1.244.889V35.97c0-.178-.089-.889-.089-.889A3.2,3.2,0,0,1,73.9,34.37Zm-6.489,9.867a3.776,3.776,0,0,0,2.844-.444,6.013,6.013,0,0,0,1.6-2.311c.356-.978.711-2.311.8-2.4A12.4,12.4,0,0,1,74.7,38.37a8.651,8.651,0,0,0,2.756-1.6A2.907,2.907,0,0,0,78.7,34.725a1.9,1.9,0,0,0-1.244-1.6,5.416,5.416,0,0,0-2.844-.356,7.683,7.683,0,0,0-2.044.444,3.709,3.709,0,0,0-.178-.978,16.508,16.508,0,0,0,1.6-2.044,3.532,3.532,0,0,0,.8-2.044,2.846,2.846,0,0,0-1.333-1.6c-.533-.356-1.244-.178-2.311.267a24.877,24.877,0,0,0-2.311,1.156c-.533-.444-1.333-.978-1.333-.978a27.843,27.843,0,0,0,1.867-2.311,13.935,13.935,0,0,0,1.422-3.2,8.636,8.636,0,0,0,.178-3.911c-.267-.444-.711-.178-1.156,0a3.932,3.932,0,0,0-1.333.444,12.55,12.55,0,0,0-1.244,1.511c-.267.444-1.156,1.6-1.422,2.133-.356.444-1.244,1.689-1.511,2.133A14.327,14.327,0,0,0,62.967,26.1c-.178.533-.267.978.089,1.244a5.667,5.667,0,0,0,1.244.711,7.612,7.612,0,0,0,1.333.444,2.351,2.351,0,0,0,.8,0c.089,0,.978.533.978.711s-.889.889-1.333,1.422c-.533.444-1.6,1.422-2.133,1.778a11.97,11.97,0,0,1-1.867,1.156c-.356.089-.711,0-.711.267a1.715,1.715,0,0,0,.267.889,1.355,1.355,0,0,0,.978.533,4.228,4.228,0,0,0,1.867-.622,19.82,19.82,0,0,0,2.667-1.778,16.137,16.137,0,0,0,1.689-1.6,4.8,4.8,0,0,1,.356,1.067s-.8,1.156-1.067,1.6-.978,1.333-1.244,1.689a2.425,2.425,0,0,0-.622,1.156,2.874,2.874,0,0,0,.267,1.511,1.514,1.514,0,0,0,1.156.711c.356,0,.533-.267.711-.533a6.04,6.04,0,0,1,.8-1.244,7.494,7.494,0,0,1,.711-.622,2.46,2.46,0,0,1,.089.711,15.851,15.851,0,0,1-.267,2.667c-.178.622-.356,1.156-.8,1.333a1.942,1.942,0,0,1-1.778-.267A21.979,21.979,0,0,1,65.1,38.992c-.622-.622-1.956-1.956-2.4-2.311-.356-.267-1.6-1.156-1.6-1.156a4.864,4.864,0,0,1,.711.889A13.086,13.086,0,0,1,62.7,38.37a24.6,24.6,0,0,0,1.689,3.644,4.773,4.773,0,0,0,3.022,2.222Z" transform="translate(-57.18 -17.326)" fill="#a71c20" fill-rule="evenodd"/>
      <path id="Path_20" data-name="Path 20" d="M82.989,48.244a10.176,10.176,0,0,0-3.467-1.956,36.256,36.256,0,0,0-3.911-.889A28.917,28.917,0,0,1,78.9,47.444c0,.089-1.511.533-2.311.889-.8.267-2.222.889-3.378,1.333a50.022,50.022,0,0,0-4.622,2.222A35.692,35.692,0,0,0,65.3,53.844c.356,0,1.778.178,2.578.267a17.805,17.805,0,0,0,3.733-.178,45.833,45.833,0,0,0,4.356-1.867,34.87,34.87,0,0,1,5.511-1.511c.711,0,2.044-.267,2.222-.622.267-.356-.089-1.156-.711-1.689Z" transform="translate(-57.647 -20.446)" fill="#a71c20" fill-rule="evenodd"/>
      <path id="Path_21" data-name="Path 21" d="M60.343,50.633a3.277,3.277,0,0,1-1.244.8,1.455,1.455,0,0,1,.178-1.067,11.283,11.283,0,0,1,.978-1.511,13,13,0,0,0-1.422,1.689,5.594,5.594,0,0,1-.711.978c-.178.089-.978,0-1.244.444a2.382,2.382,0,0,0,.356,2.311,2.956,2.956,0,0,0,2.133,1.156,3.674,3.674,0,0,0,2.4-1.244,4.274,4.274,0,0,0,.711-1.956,17.484,17.484,0,0,1,.267-2.133,24.64,24.64,0,0,1,1.067-2.4,11.633,11.633,0,0,0-1.422,1.156,7.537,7.537,0,0,0-2.044,1.778Z" transform="translate(-56.69 -20.701)" fill="#a71c20" fill-rule="evenodd"/>
    </g>
  </g>
</svg>
