<?xml version="1.0" encoding="UTF-8"?> <svg xmlns="http://www.w3.org/2000/svg" id="tripadvisor-logotype" width="25.859" height="15.322" viewBox="0 0 25.859 15.322"><g id="Group_114" data-name="Group 114" transform="translate(0 0)"><path id="Path_2519" data-name="Path 2519" d="M15.847,20.322a13.863,13.863,0,0,1,2.127.5,14.554,14.554,0,0,1,3.452,1.574.529.529,0,0,0,.264.076c1.271.005,2.541,0,3.811,0,.1,0,.2.011.306.017,0,.025,0,.035,0,.041-.059.091-.119.181-.179.272a7.8,7.8,0,0,0-1.017,2.117.244.244,0,0,0,.027.231A6.481,6.481,0,0,1,19.359,35.4a6.018,6.018,0,0,1-1.547-.2,6.487,6.487,0,0,1-3.176-1.874c-.115-.123-.224-.251-.347-.39L12.9,35.006l-1.362-2.035a.345.345,0,0,0-.046.024.211.211,0,0,0-.027.028A6.419,6.419,0,0,1,7.457,35.3a6.27,6.27,0,0,1-2.673-.15,6.488,6.488,0,0,1-4.7-5.255A6.258,6.258,0,0,1,.2,27.33a6.511,6.511,0,0,1,1.008-2.189.253.253,0,0,0,.029-.188A7.235,7.235,0,0,0,.332,23c-.1-.156-.216-.3-.324-.449V22.5a.551.551,0,0,0,.065.007q1.95,0,3.9,0a.33.33,0,0,0,.168-.054,14.01,14.01,0,0,1,2.91-1.412,15.81,15.81,0,0,1,2.258-.612,18.091,18.091,0,0,1,2.246-.295A19.057,19.057,0,0,1,15.847,20.322Zm-1.63,8.587a5.161,5.161,0,1,0,5.051-5.14A5.168,5.168,0,0,0,14.217,28.909Zm-7.742-5.16a5.155,5.155,0,1,0,5.166,5.177A5.161,5.161,0,0,0,6.474,23.749ZM6.73,22.4a6.584,6.584,0,0,1,6.2,5.627,6.56,6.56,0,0,1,6.1-5.6,14.678,14.678,0,0,0-5.75-1.2A15.922,15.922,0,0,0,6.73,22.4Z" transform="translate(0 -20.082)" fill="#313131"></path><path id="Path_2520" data-name="Path 2520" d="M64.812,41.31a3.2,3.2,0,1,1-3.2,3.194A3.186,3.186,0,0,1,64.812,41.31ZM66.9,44.5a2.09,2.09,0,0,0-4.179-.008A2.09,2.09,0,1,0,66.9,44.5Z" transform="translate(-45.445 -35.74)" fill="#313131"></path><path id="Path_2521" data-name="Path 2521" d="M15.4,41.31A3.2,3.2,0,1,1,12.19,44.5,3.185,3.185,0,0,1,15.4,41.31ZM17.48,44.5A2.091,2.091,0,0,0,13.3,44.5,2.091,2.091,0,1,0,17.48,44.5Z" transform="translate(-8.992 -35.74)" fill="#313131"></path><path id="Path_2522" data-name="Path 2522" d="M70.843,49.443a1.059,1.059,0,1,1-1.062,1.069A1.06,1.06,0,0,1,70.843,49.443Z" transform="translate(-51.474 -41.74)" fill="#313131"></path><path id="Path_2523" data-name="Path 2523" d="M21.389,49.407a1.069,1.069,0,1,1,0,2.138,1.069,1.069,0,1,1,0-2.138Z" transform="translate(-14.989 -41.714)" fill="#313131"></path></g></svg> 