<svg width="10" height="10" viewBox="0 0 10 10" fill="none" xmlns="http://www.w3.org/2000/svg">
<path d="M6.48777 2.39451C6.65134 2.74291 6.96719 2.98502 7.33945 3.03816L9.51658 3.36885C9.97907 3.43971 10.1652 4.03612 9.82679 4.37861L8.24752 5.9907C7.98243 6.26233 7.85835 6.65207 7.92039 7.0359L8.29264 9.30935C8.37161 9.79357 7.88655 10.1597 7.47481 9.92939L5.52329 8.85466C5.19616 8.6716 4.80134 8.6716 4.47421 8.85466L2.52269 9.92939C2.11095 10.1597 1.62589 9.78766 1.70485 9.30935L2.07711 7.0359C2.13915 6.65207 2.02071 6.26233 1.74997 5.9907L0.17071 4.37861C-0.162064 4.03612 0.0184232 3.43971 0.480922 3.36885L2.65805 3.03816C3.02467 2.98502 3.34052 2.74291 3.50973 2.39451L4.48549 0.327732C4.69418 -0.109244 5.29204 -0.109244 5.49509 0.327732L6.48777 2.39451Z" fill="#FA8B16"/>
</svg>
