<svg xmlns="http://www.w3.org/2000/svg" width="30.038" height="19.052" viewBox="0 0 30.038 19.052"><g transform="translate(-7 -114.594)"><path d="M63.748,129.609c0-5.582-5.038-10.179-11.541-10.85a2.409,2.409,0,1,0-3.275,0c-6.5.671-11.541,5.267-11.541,10.85C37.391,129.61,63.748,129.61,63.748,129.609Zm-17.022-7.492a8.576,8.576,0,0,0-4.419,3.115.741.741,0,1,1-1.211-.853,10.055,10.055,0,0,1,5.179-3.672.74.74,0,1,1,.451,1.41Z" transform="translate(-28.55 0)" fill="#fff"/><path d="M35.557,380.265H8.481a1.481,1.481,0,1,0,0,2.963H35.557a1.481,1.481,0,0,0,0-2.963Z" transform="translate(0 -249.581)" fill="#fff"/></g></svg>