<svg xmlns="http://www.w3.org/2000/svg" width="21.775" height="21.777" viewBox="0 0 21.775 21.777"><g transform="translate(-0.01)"><path d="M21.739,16.873q-.092-.278-1.175-.82-.293-.17-.835-.464t-.982-.541q-.441-.247-.828-.479-.062-.046-.387-.271a4.347,4.347,0,0,0-.549-.333,1.013,1.013,0,0,0-.441-.108,1.284,1.284,0,0,0-.773.441,7.531,7.531,0,0,0-.85.959,9.324,9.324,0,0,1-.819.959,1.179,1.179,0,0,1-.712.441,1.052,1.052,0,0,1-.348-.077c-.139-.052-.245-.1-.317-.131s-.2-.108-.371-.217-.273-.168-.294-.178a16.253,16.253,0,0,1-3.634-2.691A16.244,16.244,0,0,1,5.732,9.728q-.015-.031-.178-.294t-.217-.371a3.352,3.352,0,0,1-.131-.317A1.046,1.046,0,0,1,5.129,8.4a1.179,1.179,0,0,1,.441-.711,9.315,9.315,0,0,1,.959-.819,7.527,7.527,0,0,0,.959-.85,1.284,1.284,0,0,0,.441-.773A1.01,1.01,0,0,0,7.82,4.8a4.3,4.3,0,0,0-.333-.549q-.224-.325-.271-.387-.232-.386-.479-.827T6.2,2.057q-.294-.541-.464-.835Q5.191.139,4.913.047A.866.866,0,0,0,4.588,0,5.1,5.1,0,0,0,3.5.155,6.125,6.125,0,0,0,2.438.48,4.146,4.146,0,0,0,.8,2.366,6,6,0,0,0,.01,5.243a5.973,5.973,0,0,0,.054.812,6.673,6.673,0,0,0,.193.889q.139.495.224.735T.8,8.537q.232.619.278.758A14.009,14.009,0,0,0,2.361,12a22.932,22.932,0,0,0,3.333,4.091,22.942,22.942,0,0,0,4.091,3.333,14.03,14.03,0,0,0,2.707,1.284q.139.046.758.278t.858.317q.24.085.734.225a6.732,6.732,0,0,0,.889.194,5.737,5.737,0,0,0,3.689-.735,4.143,4.143,0,0,0,1.886-1.64,6.091,6.091,0,0,0,.325-1.059,5.084,5.084,0,0,0,.155-1.09A.862.862,0,0,0,21.739,16.873Z" transform="translate(0)" fill="#fff"/></g></svg>